HIERARCHY
ROOT Hips
{
	OFFSET 0.000000 0.000000 0.000000
	CHANNELS 6 Xposition Yposition Zposition Zrotation Xrotation Yrotation
	JOINT Spine
	{
		OFFSET 0.000000 -0.000000 0.070167
		CHANNELS 6 Xposition Yposition Zposition Zrotation Xrotation Yrotation
		JOINT Spine1
		{
			OFFSET 0.000000 -0.000000 0.166666
			CHANNELS 6 Xposition Yposition Zposition Zrotation Xrotation Yrotation
			JOINT Neck
			{
				OFFSET 0.000000 -0.000000 0.183780
				CHANNELS 6 Xposition Yposition Zposition Zrotation Xrotation Yrotation
				JOINT Head
				{
					OFFSET 0.000000 -0.017114 0.132633
					CHANNELS 6 Xposition Yposition Zposition Zrotation Xrotation Yrotation
					End Site
					{
						OFFSET 0.000000 -0.000000 0.171140
					}
				}
			}
			JOINT LeftShoulder
			{
				OFFSET 0.034466 0.004091 0.144174
				CHANNELS 6 Xposition Yposition Zposition Zrotation Xrotation Yrotation
				JOINT LeftArm
				{
					OFFSET 0.121044 0.000000 0.000000
					CHANNELS 6 Xposition Yposition Zposition Zrotation Xrotation Yrotation
					JOINT LeftForeArm
					{
						OFFSET 0.257070 0.000000 0.000000
						CHANNELS 6 Xposition Yposition Zposition Zrotation Xrotation Yrotation
						JOINT LeftHand
						{
							OFFSET 0.224060 0.000000 0.000000
							CHANNELS 6 Xposition Yposition Zposition Zrotation Xrotation Yrotation
							End Site
							{
								OFFSET 0.128355 0.000000 0.000000
							}
						}
					}
				}
			}
			JOINT RightShoulder
			{
				OFFSET -0.033538 0.004091 0.144174
				CHANNELS 6 Xposition Yposition Zposition Zrotation Xrotation Yrotation
				JOINT RightArm
				{
					OFFSET -0.121044 0.000000 0.000000
					CHANNELS 6 Xposition Yposition Zposition Zrotation Xrotation Yrotation
					JOINT RightForeArm
					{
						OFFSET -0.257070 0.000000 0.000000
						CHANNELS 6 Xposition Yposition Zposition Zrotation Xrotation Yrotation
						JOINT RightHand
						{
							OFFSET -0.224060 0.000000 0.000000
							CHANNELS 6 Xposition Yposition Zposition Zrotation Xrotation Yrotation
							End Site
							{
								OFFSET -0.128355 0.000000 0.000000
							}
						}
					}
				}
			}
		}
	}
	JOINT LeftUpLeg
	{
		OFFSET 0.085570 0.000000 0.000000
		CHANNELS 6 Xposition Yposition Zposition Zrotation Xrotation Yrotation
		JOINT LeftLeg
		{
			OFFSET 0.000000 0.000000 -0.385526
			CHANNELS 6 Xposition Yposition Zposition Zrotation Xrotation Yrotation
			JOINT LeftFoot
			{
				OFFSET 0.000000 0.000000 -0.365921
				CHANNELS 6 Xposition Yposition Zposition Zrotation Xrotation Yrotation
				JOINT LeftToeBase
				{
					OFFSET 0.000000 -0.128355 -0.055620
					CHANNELS 6 Xposition Yposition Zposition Zrotation Xrotation Yrotation
					End Site
					{
						OFFSET 0.000000 -0.034228 0.000000
					}
				}
			}
		}
	}
	JOINT RightUpLeg
	{
		OFFSET -0.085570 0.000000 0.000000
		CHANNELS 6 Xposition Yposition Zposition Zrotation Xrotation Yrotation
		JOINT RightLeg
		{
			OFFSET 0.000000 0.000000 -0.385526
			CHANNELS 6 Xposition Yposition Zposition Zrotation Xrotation Yrotation
			JOINT RightFoot
			{
				OFFSET 0.000000 0.000000 -0.365921
				CHANNELS 6 Xposition Yposition Zposition Zrotation Xrotation Yrotation
				JOINT RightToeBase
				{
					OFFSET 0.000000 -0.128355 -0.055620
					CHANNELS 6 Xposition Yposition Zposition Zrotation Xrotation Yrotation
					End Site
					{
						OFFSET 0.000000 -0.034228 0.000000
					}
				}
			}
		}
	}
}
MOTION
Frames: 4
Frame Time: 0.016667
0.190817 -0.023530 0.823309 -10.037682 -4.870784 -1.119032 0.000000 -0.000000 0.070167 1.050137 -0.951285 -0.040634 -0.000000 -0.000000 0.166666 0.361103 -2.458125 0.493348 0.000000 -0.000000 0.183780 -1.375602 7.731365 3.443220 -0.000000 -0.017114 0.132633 -1.845020 10.469918 -5.121415 0.034466 0.004091 0.144174 -2.149726 6.607927 -8.093428 0.121044 0.000000 0.000000 3.098289 8.143838 43.172280 0.257070 -0.000000 0.000000 -46.668514 2.373615 -7.874433 0.224060 0.000000 0.000000 -19.458422 0.480360 -8.786068 -0.033538 0.004091 0.144174 -10.833670 3.034687 14.261566 -0.121044 0.000000 0.000000 16.974944 16.649064 -38.993909 -0.257070 -0.000000 -0.000000 27.619629 0.270875 10.517917 -0.224060 -0.000000 0.000000 13.454971 -1.570012 6.369799 0.085570 -0.000000 0.000000 -0.471981 11.761749 -3.247806 0.000000 0.000000 -0.385526 -4.626990 1.574666 -0.062418 -0.000000 0.000000 -0.365921 17.222163 -5.128734 11.929422 0.000000 -0.128355 -0.055620 -0.000000 0.000003 -0.000000 -0.085570 -0.000000 0.000000 0.162582 8.277916 6.884971 -0.000000 0.000000 -0.385526 5.016105 0.975425 -1.941246 0.000000 0.000000 -0.365921 6.359623 -2.646005 2.046029 -0.000000 -0.128355 -0.055620 -0.000000 -0.000002 0.000000 
0.190610 -0.023161 0.823215 -10.022971 -4.835920 -1.054197 0.000000 -0.000000 0.070167 1.022641 -1.003338 -0.032838 0.000000 -0.000000 0.166666 0.348831 -1.919324 0.454438 0.000000 -0.000000 0.183780 -1.364154 7.632408 3.663153 -0.000000 -0.017114 0.132633 -1.877550 10.218725 -5.525431 0.034466 0.004091 0.144174 -1.615602 6.956421 -7.884699 0.121044 0.000000 0.000000 0.842387 8.975240 45.059147 0.257070 -0.000000 -0.000000 -47.573343 2.747063 -7.915520 0.224060 0.000000 -0.000000 -19.317243 0.594149 -7.871569 -0.033538 0.004091 0.144174 -11.058364 3.227150 14.034330 -0.121044 0.000000 0.000000 18.885504 17.841170 -41.032003 -0.257070 -0.000000 -0.000000 28.524868 0.292195 10.777363 -0.224060 -0.000000 0.000000 13.821855 -1.676959 6.420342 0.085570 0.000000 -0.000000 -0.426790 11.709522 -3.356390 0.000000 0.000000 -0.385526 -4.682070 1.564966 -0.039549 0.000000 0.000000 -0.365921 17.240845 -5.205381 11.949867 0.000000 -0.128355 -0.055620 -0.000000 0.000001 0.000000 -0.085570 -0.000000 -0.000000 0.302350 8.189302 6.776713 -0.000000 0.000000 -0.385526 5.132326 1.069211 -1.943721 -0.000000 0.000000 -0.365921 6.124345 -2.691566 2.080907 -0.000000 -0.128355 -0.055620 0.000000 0.000002 0.000000 
0.190445 -0.022758 0.823199 -10.020708 -4.798108 -0.992950 -0.000000 -0.000000 0.070167 1.018462 -0.930857 -0.045798 0.000000 -0.000000 0.166666 0.346047 -1.549741 0.450786 0.000000 -0.000000 0.183780 -1.356295 7.182513 3.478049 0.000000 -0.017114 0.132633 -1.845935 10.614894 -5.268396 0.034466 0.004091 0.144174 -1.341889 7.124265 -7.601497 0.121044 0.000000 0.000000 -0.104466 8.495659 46.360244 0.257070 -0.000000 -0.000000 -47.930053 3.208727 -5.789362 0.224060 0.000000 0.000000 -19.519991 1.934362 -7.549404 -0.033538 0.004091 0.144174 -11.436309 3.496590 13.727751 -0.121044 -0.000000 0.000000 20.929424 18.668580 -42.924942 -0.257070 0.000000 0.000000 29.159088 0.565702 10.928812 -0.224060 0.000000 -0.000000 14.176181 -1.507861 6.252494 0.085570 0.000000 -0.000000 -0.466165 11.662876 -3.418652 -0.000000 0.000000 -0.385526 -4.568051 1.541814 -0.061053 0.000000 0.000000 -0.365921 17.174548 -5.253566 11.956343 0.000000 -0.128355 -0.055620 -0.000000 0.000000 -0.000000 -0.085570 0.000000 -0.000000 0.406494 8.079108 6.684749 0.000000 0.000000 -0.385526 5.290060 1.172957 -1.960078 0.000000 0.000000 -0.365921 5.882405 -2.700207 2.109679 -0.000000 -0.128355 -0.055620 -0.000000 -0.000003 -0.000000 
0.190380 -0.022203 0.823068 -10.041598 -4.757662 -0.981355 0.000000 -0.000000 0.070167 1.019804 -0.856038 -0.037932 0.000000 -0.000000 0.166666 0.345085 -1.087221 0.504996 -0.000000 -0.000000 0.183780 -1.242663 6.916001 3.478525 -0.000000 -0.017114 0.132633 -1.747288 10.515545 -5.423245 0.034466 0.004091 0.144174 -1.058005 7.359431 -7.448040 0.121044 0.000000 0.000000 -1.534138 8.534285 47.836664 0.257070 0.000000 0.000000 -48.211918 4.396571 -4.608898 0.224060 -0.000000 -0.000000 -20.012318 3.428587 -6.191258 -0.033538 0.004091 0.144174 -11.854469 3.664795 13.377375 -0.121044 -0.000000 0.000000 22.846255 19.016403 -44.620625 -0.257070 0.000000 -0.000000 29.435380 1.424936 10.695298 -0.224060 -0.000000 0.000000 14.905187 -0.630361 5.826998 0.085570 0.000000 0.000000 -0.562027 11.616905 -3.404228 -0.000000 0.000000 -0.385526 -4.262549 1.499157 -0.105652 0.000000 0.000000 -0.365921 16.973181 -5.265847 11.944175 0.000000 -0.128355 -0.055620 0.000000 0.000001 0.000000 -0.085570 0.000000 0.000000 0.511334 7.875959 6.739824 0.000000 0.000000 -0.385526 5.469200 1.413071 -2.160068 -0.000000 0.000000 -0.365921 5.695050 -2.826690 2.204103 0.000000 -0.128355 -0.055620 0.000000 0.000003 -0.000000 
